<svg width="21" height="32" viewBox="0 0 21 32" fill="none" xmlns="http://www.w3.org/2000/svg">
<path d="M20.6807 5.03984C20.883 5.20688 21 5.45377 21 5.71363L21 16.3425C21 16.6023 20.8831 16.8488 20.6808 17.0159L15.683 21.1419C15.3509 21.416 14.8669 21.4161 14.5348 21.142L10.7598 18.0252C10.3343 17.6739 10.3342 17.0298 10.7597 16.6785L12.9462 14.8732C13.0675 14.773 13.1376 14.6251 13.1376 14.4692L13.1375 7.80888C13.1375 7.653 13.0676 7.50508 12.9463 7.40487L10.6869 5.53942C10.2614 5.1881 10.2613 4.54405 10.6868 4.19269L14.5964 0.964486C14.9286 0.690366 15.4128 0.690417 15.7449 0.964584L20.6807 5.03984ZM15.5152 1.23396C15.3159 1.06947 15.0253 1.06933 14.826 1.23382L10.9166 4.46176C10.6613 4.67256 10.6613 5.05924 10.9166 5.27004L13.176 7.13549C13.3783 7.30253 13.495 7.54922 13.495 7.80906L13.4951 14.4693C13.4951 14.7292 13.3783 14.9757 13.176 15.1428L10.9893 16.9478C10.7341 17.1586 10.7343 17.5451 10.9895 17.7558L14.7645 20.8727C14.9638 21.0371 15.2542 21.0371 15.4534 20.8726L20.4511 16.7468C20.5725 16.6466 20.6428 16.4984 20.6428 16.3425L20.6425 5.71345C20.6425 5.55754 20.5724 5.40944 20.451 5.30922L15.5152 1.23396Z" fill="currentColor"/>
<path d="M17.8724 15.8242C17.4777 15.8242 17.1577 15.5093 17.1577 15.1209C17.1577 14.7325 17.4777 14.4176 17.8724 14.4176C18.2672 14.4176 18.5872 14.7325 18.5872 15.1209C18.5872 15.5093 18.2672 15.8242 17.8724 15.8242Z" fill="currentColor"/>
<path d="M16.4429 14.4176C16.0481 14.4176 15.7281 14.1027 15.7281 13.7143C15.7281 13.3259 16.0481 13.011 16.4429 13.011C16.8376 13.011 17.1577 13.3259 17.1577 13.7143C17.1577 14.1027 16.8376 14.4176 16.4429 14.4176Z" fill="currentColor"/>
<path d="M9.28832 26.6876V4.9705L5.0497 0H4.29167L0 5.03255L0.0157051 26.6438L4.58343 32H4.75793L9.28832 26.6876Z" fill="currentColor"/>
<path d="M14.2986 15.1209C14.2986 15.5093 14.6186 15.8242 15.0134 15.8242C15.4081 15.8242 15.7281 15.5093 15.7281 15.1209C15.7281 14.7325 15.4081 14.4176 15.0134 14.4176C14.6186 14.4176 14.2986 14.7325 14.2986 15.1209Z" fill="currentColor"/>
<path d="M15.7281 16.5275C15.7281 16.9159 16.0481 17.2308 16.4429 17.2308C16.8376 17.2308 17.1577 16.9159 17.1577 16.5275C17.1577 16.1391 16.8376 15.8242 16.4429 15.8242C16.0481 15.8242 15.7281 16.1391 15.7281 16.5275Z" fill="currentColor"/>
<path fill-rule="evenodd" clip-rule="evenodd" d="M15.7281 9.14286V8.08791H14.656C14.4586 8.08791 14.2986 7.93047 14.2986 7.73626V7.03297C14.2986 6.83876 14.4586 6.68132 14.656 6.68132H15.7281V5.62637C15.7281 5.43216 15.8881 5.27473 16.0855 5.27473H16.8003C16.9976 5.27473 17.1577 5.43216 17.1577 5.62637V6.68132H18.2298C18.4272 6.68132 18.5872 6.83876 18.5872 7.03297V7.73626C18.5872 7.93047 18.4272 8.08791 18.2298 8.08791H17.1577V9.14286C17.1577 9.33707 16.9976 9.49451 16.8003 9.49451H16.0855C15.8881 9.49451 15.7281 9.33707 15.7281 9.14286Z" fill="currentColor"/>
</svg>
